inDegrees=yes
name=ik_S52_A04_T03
DataType=double
version=3
OpenSimVersion=4.3-2021-08-27-4bc7ad9
endheader
time	pelvis_tilt	pelvis_list	pelvis_rotation	pelvis_tx	pelvis_ty	pelvis_tz	hip_flexion_r	hip_adduction_r	hip_rotation_r	knee_angle_r	knee_angle_r_beta	ankle_angle_r	subtalar_angle_r	mtp_angle_r	hip_flexion_l	hip_adduction_l	hip_rotation_l	knee_angle_l	knee_angle_l_beta	ankle_angle_l	subtalar_angle_l	mtp_angle_l	lumbar_extension	lumbar_bending	lumbar_rotation	arm_flex_r	arm_add_r	arm_rot_r	elbow_flex_r	pro_sup_r	wrist_flex_r	wrist_dev_r	arm_flex_l	arm_add_l	arm_rot_l	elbow_flex_l	pro_sup_l	wrist_flex_l	wrist_dev_l
0	0	0	0	0	0.9399999999999999	0	0	0	0	0	0	0	0	0	0	0	0	0	0	0	0	0	0	0	0	0	0	0	0	89.99999999963507	0	0	0	0	0	0	89.99999999869995	0	0
0.02	39.35393002881228	10.02104671580651	16.04281074936873	0	0.9399999999999999	0	25.93023831805161	-31.66898126818815	16.3567647575938	72.49587701109158	1.265291747964414	0	0	0	32.11158752773857	-26.04853753949833	-0.2929537050165161	81.281006034719	1.418621174639227	0	0	0	0	0	0	2.428057109696486	-2.428057109696486	0.4416744856552314	13.33765695835753	89.55832554003297	0	0	2.428057109696486	-2.428057109696486	0.4416744856552314	13.33765695835753	89.5583255391807	0	0
0.04	39.18181042440521	9.946970027943845	16.02951391432384	0	0.9399999999999999	0	26.14656254424594	-31.61530881151122	16.40558125902441	72.50048822199386	1.265372228777162	0	0	0	32.27514136996417	-26.11705743655781	-0.3264299541442146	81.27675300081407	1.418546945194387	0	0	0	0	0	0	2.583872885327609	-2.583872885327609	0.4717042117864049	14.23807974933119	89.52829581569017	0	0	2.583872885327609	-2.583872885327609	0.4717042117864049	14.23807974933119	89.52829581484366	0	0
0.06	39.20676959059546	9.965300260898726	16.02683028697403	0	0.9399999999999999	0	26.12398585059065	-31.61970867025529	16.44002841707172	72.48952846953529	1.265180945011557	0	0	0	32.25334910008428	-26.10292689663396	-0.3126561731354094	81.25285581113764	1.41812986055256	0	0	0	0	0	0	2.875974706348257	-2.875974706348257	0.5281061592003449	16.02822988084615	89.47189387163763	0	0	2.875974706348257	-2.875974706348257	0.5281061592003449	16.02822988084615	89.47189387080161	0	0
0.08	38.86970362398817	9.872998188778141	16.14818425704259	0	0.9399999999999999	0	26.42724470071905	-31.65521536930122	16.3845316266648	72.48418174445347	1.26508762705468	0	0	0	32.62658667802832	-26.07390701294355	-0.2656378756999522	81.25296045819897	1.418131686988332	0	0	0	0	0	0	2.879607954236531	-2.879607954236531	0.528795092090518	16.04922627289856	89.47120493878838	0	0	2.879607954236531	-2.879607954236531	0.528795092090518	16.04922627289856	89.47120493795249	0	0
0.1	38.85225387729263	9.899770352573393	16.1954863047146	0	0.9399999999999999	0	26.42240578422233	-31.69914252461409	16.35974649294974	72.50200362286921	1.265398677511925	0	0	0	32.65629434712977	-26.0297837241242	-0.22724565363019	81.29710952493876	1.418902233564624	0	0	0	0	0	0	3.012442835439369	-3.012442835439369	0.5542494519105111	16.75949416358177	89.44575058048186	0	0	3.012442835439369	-3.012442835439369	0.5542494519105111	16.75949416358177	89.44575057965075	0	0
0.12	38.83040200969688	9.8812594857981	16.19710991893654	0	0.9399999999999999	0	26.44335228183726	-31.69770083033391	16.37306598149522	72.48748073423741	1.265145205288399	0	0	0	32.70874868274691	-26.0308517338081	-0.2078877009777414	81.31503006612937	1.41921500601214	0	0	0	0	0	0	3.131808531782144	-3.131808531782144	0.5770562566165257	17.37816008421416	89.42294377713083	0	0	3.131808531782144	-3.131808531782144	0.5770562566165257	17.37816008421416	89.42294377630397	0	0
0.14	38.69547629793425	9.802190200010967	16.17405173570233	0	0.9399999999999999	0	26.61276198503076	-31.64243528942663	16.38889604666694	72.49652088051371	1.265302985605783	0	0	0	32.85500015380488	-26.08547801111937	-0.2261515122131714	81.34640502866444	1.419762602411067	0	0	0	0	0	0	3.264333384714103	-3.264333384714103	0.6024054804964147	18.07553517867976	89.39759455475739	0	0	3.264333384714103	-3.264333384714103	0.6024054804964147	18.07553517867976	89.39759455393535	0	0
0.16	38.57490285359865	9.768003295956438	16.1771594548504	0	0.9399999999999999	0	26.74592913186616	-31.63166544321467	16.39571146111717	72.48407258632062	1.265085721885856	0	0	0	32.95716584247191	-26.10408459976583	-0.264439694283479	81.31934379371877	1.419290294761609	0	0	0	0	0	0	3.423975058915175	-3.423975058915175	0.6329640860611999	18.93071373359255	89.36703595100916	0	0	3.423975058915175	-3.423975058915175	0.6329640860611999	18.93071373359255	89.36703595019287	0	0
0.18	38.5770856916376	9.787710153820129	16.21352346582048	0	0.9399999999999999	0	26.72390639516874	-31.65505140563008	16.35633593746098	72.4867738702614	1.265132868184655	0	0	0	32.95514500507502	-26.06319328669223	-0.2405138697666307	81.29718868431901	1.418903615156444	0	0	0	0	0	0	3.535296809436161	-3.53529680943616	0.654158560705198	19.48860321859209	89.34584147762328	0	0	3.535296809436161	-3.53529680943616	0.654158560705198	19.48860321859209	89.34584147681095	0	0
0.2	38.57636446860225	9.789248827607043	16.21237522160582	0	0.9399999999999999	0	26.71931177918438	-31.63709059189345	16.33573691198506	72.49130390270098	1.265211932165947	0	0	0	32.94694735149854	-26.06724516263801	-0.2599095386739552	81.2958699468105	1.418880598844951	0	0	0	0	0	0	3.642024870946853	-3.642024870946854	0.6744955218032833	20.02888968098565	89.32550451773261	0	0	3.642024870946853	-3.642024870946854	0.6744955218032833	20.02888968098565	89.32550451692421	0	0
0.22	38.20398734670826	9.657981703729615	16.25022154079737	0	0.9399999999999999	0	27.11167464173195	-31.60703669647955	16.34720024687428	72.47102391813449	1.264857979663008	0	0	0	33.33239162733946	-26.10358796974305	-0.2791280621909411	81.28153917972044	1.418630479774893	0	0	0	0	0	0	3.645552446684427	-3.645552446684426	0.6751543758952312	20.04628287782163	89.32484566367962	0	0	3.645552446684427	-3.645552446684426	0.6751543758952312	20.04628287782163	89.32484566287137	0	0
0.24	38.18085239906232	9.67220893948442	16.2528649384789	0	0.9399999999999999	0	27.14933911005635	-31.6085470842878	16.36721401493432	72.49191937786411	1.265222674234008	0	0	0	33.34136099445431	-26.08925764819573	-0.2898855841705314	81.29746462270282	1.418908431189774	0	0	0	0	0	0	3.812089208296359	-3.812089208296357	0.7069136898125196	20.90980953426089	89.29308635164847	0	0	3.812089208296359	-3.812089208296357	0.7069136898125196	20.90980953426089	89.29308635084666	0	0
